<svg width="33" height="32" viewBox="0 0 33 32" fill="none" xmlns="http://www.w3.org/2000/svg">
<path d="M9.83333 4H5.83333C5.09695 4 4.5 4.59695 4.5 5.33333V9.33333C4.5 10.0697 5.09695 10.6667 5.83333 10.6667H9.83333C10.5697 10.6667 11.1667 10.0697 11.1667 9.33333V5.33333C11.1667 4.59695 10.5697 4 9.83333 4Z" stroke="#0F0E13" stroke-width="2" stroke-linecap="round" stroke-linejoin="round"/>
<path d="M18.1 13.3333H14.9C14.3109 13.3333 13.8333 13.8109 13.8333 14.4V17.6C13.8333 18.1891 14.3109 18.6667 14.9 18.6667H18.1C18.6891 18.6667 19.1666 18.1891 19.1666 17.6V14.4C19.1666 13.8109 18.6891 13.3333 18.1 13.3333Z" stroke="#0F0E13" stroke-width="2" stroke-linecap="round" stroke-linejoin="round"/>
<path d="M27.1666 21.3333H23.1666C22.4303 21.3333 21.8333 21.9303 21.8333 22.6667V26.6667C21.8333 27.403 22.4303 28 23.1666 28H27.1666C27.903 28 28.5 27.403 28.5 26.6667V22.6667C28.5 21.9303 27.903 21.3333 27.1666 21.3333Z" stroke="#0F0E13" stroke-width="2" stroke-linecap="round" stroke-linejoin="round"/>
<path d="M27.1666 4H23.1666C22.4303 4 21.8333 4.59695 21.8333 5.33333V9.33333C21.8333 10.0697 22.4303 10.6667 23.1666 10.6667H27.1666C27.903 10.6667 28.5 10.0697 28.5 9.33333V5.33333C28.5 4.59695 27.903 4 27.1666 4Z" stroke="#0F0E13" stroke-width="2" stroke-linecap="round" stroke-linejoin="round"/>
<path d="M9.83333 21.3333H5.83333C5.09695 21.3333 4.5 21.9303 4.5 22.6667V26.6667C4.5 27.403 5.09695 28 5.83333 28H9.83333C10.5697 28 11.1667 27.403 11.1667 26.6667V22.6667C11.1667 21.9303 10.5697 21.3333 9.83333 21.3333Z" stroke="#0F0E13" stroke-width="2" stroke-linecap="round" stroke-linejoin="round"/>
<path d="M4.5 16H9.84667" stroke="#0F0E13" stroke-width="2" stroke-linecap="round" stroke-linejoin="round"/>
<path d="M16.5 4H16.5142" stroke="#0F0E13" stroke-width="2" stroke-linecap="round" stroke-linejoin="round"/>
<path d="M28.5 16V16.0142" stroke="#0F0E13" stroke-width="2" stroke-linecap="round" stroke-linejoin="round"/>
<path d="M28.5 16V16.0142" stroke="#0F0E13" stroke-width="2" stroke-linecap="round" stroke-linejoin="round"/>
<path d="M23.1667 16V16.0142" stroke="#0F0E13" stroke-width="2" stroke-linecap="round" stroke-linejoin="round"/>
<path d="M16.5 28V26.6667" stroke="#0F0E13" stroke-width="2" stroke-linecap="round" stroke-linejoin="round"/>
</svg>
