<svg width="33" height="32" viewBox="0 0 33 32" fill="none" xmlns="http://www.w3.org/2000/svg">
<path d="M7 4.5H5.5C5.22386 4.5 5 4.72386 5 5V6.5C5 6.77614 5.22386 7 5.5 7H7C7.27614 7 7.5 6.77614 7.5 6.5V5C7.5 4.72386 7.27614 4.5 7 4.5Z" stroke="#0F0E13" stroke-linecap="round" stroke-linejoin="round"/>
<path d="M10.1 8H8.9C8.67909 8 8.5 8.17909 8.5 8.4V9.6C8.5 9.82091 8.67909 10 8.9 10H10.1C10.3209 10 10.5 9.82091 10.5 9.6V8.4C10.5 8.17909 10.3209 8 10.1 8Z" stroke="#0F0E13" stroke-linecap="round" stroke-linejoin="round"/>
<path d="M13.5 11H12C11.7239 11 11.5 11.2239 11.5 11.5V13C11.5 13.2761 11.7239 13.5 12 13.5H13.5C13.7761 13.5 14 13.2761 14 13V11.5C14 11.2239 13.7761 11 13.5 11Z" stroke="#0F0E13" stroke-linecap="round" stroke-linejoin="round"/>
<path d="M13.5 4.5H12C11.7239 4.5 11.5 4.72386 11.5 5V6.5C11.5 6.77614 11.7239 7 12 7H13.5C13.7761 7 14 6.77614 14 6.5V5C14 4.72386 13.7761 4.5 13.5 4.5Z" stroke="#0F0E13" stroke-linecap="round" stroke-linejoin="round"/>
<path d="M7 11H5.5C5.22386 11 5 11.2239 5 11.5V13C5 13.2761 5.22386 13.5 5.5 13.5H7C7.27614 13.5 7.5 13.2761 7.5 13V11.5C7.5 11.2239 7.27614 11 7 11Z" stroke="#0F0E13" stroke-linecap="round" stroke-linejoin="round"/>
<path d="M5 9H7.005" stroke="#0F0E13" stroke-linecap="round" stroke-linejoin="round"/>
<path d="M9.5 4.5H9.5062" stroke="#0F0E13" stroke-linecap="round" stroke-linejoin="round"/>
<path d="M14 9V9.0062" stroke="#0F0E13" stroke-linecap="round" stroke-linejoin="round"/>
<path d="M14 9V9.0062" stroke="#0F0E13" stroke-linecap="round" stroke-linejoin="round"/>
<path d="M12 9V9.0062" stroke="#0F0E13" stroke-linecap="round" stroke-linejoin="round"/>
<path d="M9.5 13.5V13" stroke="#0F0E13" stroke-linecap="round" stroke-linejoin="round"/>
<path d="M7 18.5H5.5C5.22386 18.5 5 18.7239 5 19V20.5C5 20.7761 5.22386 21 5.5 21H7C7.27614 21 7.5 20.7761 7.5 20.5V19C7.5 18.7239 7.27614 18.5 7 18.5Z" stroke="#0F0E13" stroke-linecap="round" stroke-linejoin="round"/>
<path d="M10.1 22H8.9C8.67909 22 8.5 22.1791 8.5 22.4V23.6C8.5 23.8209 8.67909 24 8.9 24H10.1C10.3209 24 10.5 23.8209 10.5 23.6V22.4C10.5 22.1791 10.3209 22 10.1 22Z" stroke="#0F0E13" stroke-linecap="round" stroke-linejoin="round"/>
<path d="M13.5 25H12C11.7239 25 11.5 25.2239 11.5 25.5V27C11.5 27.2761 11.7239 27.5 12 27.5H13.5C13.7761 27.5 14 27.2761 14 27V25.5C14 25.2239 13.7761 25 13.5 25Z" stroke="#0F0E13" stroke-linecap="round" stroke-linejoin="round"/>
<path d="M13.5 18.5H12C11.7239 18.5 11.5 18.7239 11.5 19V20.5C11.5 20.7761 11.7239 21 12 21H13.5C13.7761 21 14 20.7761 14 20.5V19C14 18.7239 13.7761 18.5 13.5 18.5Z" stroke="#0F0E13" stroke-linecap="round" stroke-linejoin="round"/>
<path d="M7 25H5.5C5.22386 25 5 25.2239 5 25.5V27C5 27.2761 5.22386 27.5 5.5 27.5H7C7.27614 27.5 7.5 27.2761 7.5 27V25.5C7.5 25.2239 7.27614 25 7 25Z" stroke="#0F0E13" stroke-linecap="round" stroke-linejoin="round"/>
<path d="M5 23H7.005" stroke="#0F0E13" stroke-linecap="round" stroke-linejoin="round"/>
<path d="M9.5 18.5H9.5062" stroke="#0F0E13" stroke-linecap="round" stroke-linejoin="round"/>
<path d="M14 23V23.0062" stroke="#0F0E13" stroke-linecap="round" stroke-linejoin="round"/>
<path d="M14 23V23.0062" stroke="#0F0E13" stroke-linecap="round" stroke-linejoin="round"/>
<path d="M12 23V23.0062" stroke="#0F0E13" stroke-linecap="round" stroke-linejoin="round"/>
<path d="M9.5 27.5V27" stroke="#0F0E13" stroke-linecap="round" stroke-linejoin="round"/>
<path d="M21 4.5H19.5C19.2239 4.5 19 4.72386 19 5V6.5C19 6.77614 19.2239 7 19.5 7H21C21.2761 7 21.5 6.77614 21.5 6.5V5C21.5 4.72386 21.2761 4.5 21 4.5Z" stroke="#0F0E13" stroke-linecap="round" stroke-linejoin="round"/>
<path d="M24.1 8H22.9C22.6791 8 22.5 8.17909 22.5 8.4V9.6C22.5 9.82091 22.6791 10 22.9 10H24.1C24.3209 10 24.5 9.82091 24.5 9.6V8.4C24.5 8.17909 24.3209 8 24.1 8Z" stroke="#0F0E13" stroke-linecap="round" stroke-linejoin="round"/>
<path d="M27.5 11H26C25.7239 11 25.5 11.2239 25.5 11.5V13C25.5 13.2761 25.7239 13.5 26 13.5H27.5C27.7761 13.5 28 13.2761 28 13V11.5C28 11.2239 27.7761 11 27.5 11Z" stroke="#0F0E13" stroke-linecap="round" stroke-linejoin="round"/>
<path d="M27.5 4.5H26C25.7239 4.5 25.5 4.72386 25.5 5V6.5C25.5 6.77614 25.7239 7 26 7H27.5C27.7761 7 28 6.77614 28 6.5V5C28 4.72386 27.7761 4.5 27.5 4.5Z" stroke="#0F0E13" stroke-linecap="round" stroke-linejoin="round"/>
<path d="M21 11H19.5C19.2239 11 19 11.2239 19 11.5V13C19 13.2761 19.2239 13.5 19.5 13.5H21C21.2761 13.5 21.5 13.2761 21.5 13V11.5C21.5 11.2239 21.2761 11 21 11Z" stroke="#0F0E13" stroke-linecap="round" stroke-linejoin="round"/>
<path d="M19 9H21.005" stroke="#0F0E13" stroke-linecap="round" stroke-linejoin="round"/>
<path d="M23.5 4.5H23.5062" stroke="#0F0E13" stroke-linecap="round" stroke-linejoin="round"/>
<path d="M28 9V9.0062" stroke="#0F0E13" stroke-linecap="round" stroke-linejoin="round"/>
<path d="M28 9V9.0062" stroke="#0F0E13" stroke-linecap="round" stroke-linejoin="round"/>
<path d="M26 9V9.0062" stroke="#0F0E13" stroke-linecap="round" stroke-linejoin="round"/>
<path d="M23.5 13.5V13" stroke="#0F0E13" stroke-linecap="round" stroke-linejoin="round"/>
<path d="M21 18.5H19.5C19.2239 18.5 19 18.7239 19 19V20.5C19 20.7761 19.2239 21 19.5 21H21C21.2761 21 21.5 20.7761 21.5 20.5V19C21.5 18.7239 21.2761 18.5 21 18.5Z" stroke="#0F0E13" stroke-linecap="round" stroke-linejoin="round"/>
<path d="M24.1 22H22.9C22.6791 22 22.5 22.1791 22.5 22.4V23.6C22.5 23.8209 22.6791 24 22.9 24H24.1C24.3209 24 24.5 23.8209 24.5 23.6V22.4C24.5 22.1791 24.3209 22 24.1 22Z" stroke="#0F0E13" stroke-linecap="round" stroke-linejoin="round"/>
<path d="M27.5 25H26C25.7239 25 25.5 25.2239 25.5 25.5V27C25.5 27.2761 25.7239 27.5 26 27.5H27.5C27.7761 27.5 28 27.2761 28 27V25.5C28 25.2239 27.7761 25 27.5 25Z" stroke="#0F0E13" stroke-linecap="round" stroke-linejoin="round"/>
<path d="M27.5 18.5H26C25.7239 18.5 25.5 18.7239 25.5 19V20.5C25.5 20.7761 25.7239 21 26 21H27.5C27.7761 21 28 20.7761 28 20.5V19C28 18.7239 27.7761 18.5 27.5 18.5Z" stroke="#0F0E13" stroke-linecap="round" stroke-linejoin="round"/>
<path d="M21 25H19.5C19.2239 25 19 25.2239 19 25.5V27C19 27.2761 19.2239 27.5 19.5 27.5H21C21.2761 27.5 21.5 27.2761 21.5 27V25.5C21.5 25.2239 21.2761 25 21 25Z" stroke="#0F0E13" stroke-linecap="round" stroke-linejoin="round"/>
<path d="M19 23H21.005" stroke="#0F0E13" stroke-linecap="round" stroke-linejoin="round"/>
<path d="M23.5 18.5H23.5062" stroke="#0F0E13" stroke-linecap="round" stroke-linejoin="round"/>
<path d="M28 23V23.0062" stroke="#0F0E13" stroke-linecap="round" stroke-linejoin="round"/>
<path d="M28 23V23.0062" stroke="#0F0E13" stroke-linecap="round" stroke-linejoin="round"/>
<path d="M26 23V23.0062" stroke="#0F0E13" stroke-linecap="round" stroke-linejoin="round"/>
<path d="M23.5 27.5V27" stroke="#0F0E13" stroke-linecap="round" stroke-linejoin="round"/>
</svg>
