<svg width="33" height="32" viewBox="0 0 33 32" fill="none" xmlns="http://www.w3.org/2000/svg">
<path d="M19.8333 2.66667H8.49998C7.79274 2.66667 7.11446 2.94762 6.61436 3.44772C6.11426 3.94782 5.83331 4.62609 5.83331 5.33334V26.6667C5.83331 27.3739 6.11426 28.0522 6.61436 28.5523C7.11446 29.0524 7.79274 29.3333 8.49998 29.3333H24.5C25.2072 29.3333 25.8855 29.0524 26.3856 28.5523C26.8857 28.0522 27.1666 27.3739 27.1666 26.6667V10V4.66667C27.1666 3.5621 26.2712 2.66667 25.1666 2.66667H19.8333Z" stroke="#0F0E13" stroke-width="2" stroke-linecap="round" stroke-linejoin="round"/>
<path d="M13.5 10H10.5" stroke="#0F0E13" stroke-width="2" stroke-linecap="round" stroke-linejoin="round"/>
<path d="M23.5 14H10.5" stroke="#0F0E13" stroke-width="2" stroke-linecap="round" stroke-linejoin="round"/>
<path d="M23.5 18H10.5" stroke="#0F0E13" stroke-width="2" stroke-linecap="round" stroke-linejoin="round"/>
<path d="M23.5 22H10.5" stroke="#0F0E13" stroke-width="2" stroke-linecap="round" stroke-linejoin="round"/>
</svg>
