<svg width="33" height="32" viewBox="0 0 33 32" fill="none" xmlns="http://www.w3.org/2000/svg">
<g clip-path="url(#clip0_228_3000)">
<path d="M23.5 8H19.5V7C19.5 6.20435 19.1839 5.44129 18.6213 4.87868C18.0587 4.31607 17.2956 4 16.5 4C15.7044 4 14.9413 4.31607 14.3787 4.87868C13.8161 5.44129 13.5 6.20435 13.5 7V8H9.5C8.1744 8.00159 6.90356 8.52888 5.96622 9.46622C5.02888 10.4036 4.50159 11.6744 4.5 13L4.5 23C4.50159 24.3256 5.02888 25.5964 5.96622 26.5338C6.90356 27.4711 8.1744 27.9984 9.5 28H23.5C24.8256 27.9984 26.0964 27.4711 27.0338 26.5338C27.9711 25.5964 28.4984 24.3256 28.5 23V13C28.4984 11.6744 27.9711 10.4036 27.0338 9.46622C26.0964 8.52888 24.8256 8.00159 23.5 8ZM15.5 7C15.5 6.73478 15.6054 6.48043 15.7929 6.29289C15.9804 6.10536 16.2348 6 16.5 6C16.7652 6 17.0196 6.10536 17.2071 6.29289C17.3946 6.48043 17.5 6.73478 17.5 7V9C17.5 9.26522 17.3946 9.51957 17.2071 9.70711C17.0196 9.89464 16.7652 10 16.5 10C16.2348 10 15.9804 9.89464 15.7929 9.70711C15.6054 9.51957 15.5 9.26522 15.5 9V7ZM26.5 23C26.5 23.7956 26.1839 24.5587 25.6213 25.1213C25.0587 25.6839 24.2956 26 23.5 26H9.5C8.70435 26 7.94129 25.6839 7.37868 25.1213C6.81607 24.5587 6.5 23.7956 6.5 23V13C6.5 12.2044 6.81607 11.4413 7.37868 10.8787C7.94129 10.3161 8.70435 10 9.5 10H13.684C13.8876 10.5845 14.2682 11.0912 14.7727 11.4498C15.2773 11.8083 15.881 12.0009 16.5 12.0009C17.119 12.0009 17.7227 11.8083 18.2273 11.4498C18.7318 11.0912 19.1124 10.5845 19.316 10H23.5C24.2956 10 25.0587 10.3161 25.6213 10.8787C26.1839 11.4413 26.5 12.2044 26.5 13V23ZM14.5 14H9.5C9.23478 14 8.98043 14.1054 8.79289 14.2929C8.60536 14.4804 8.5 14.7348 8.5 15V23C8.5 23.2652 8.60536 23.5196 8.79289 23.7071C8.98043 23.8946 9.23478 24 9.5 24H14.5C14.7652 24 15.0196 23.8946 15.2071 23.7071C15.3946 23.5196 15.5 23.2652 15.5 23V15C15.5 14.7348 15.3946 14.4804 15.2071 14.2929C15.0196 14.1054 14.7652 14 14.5 14ZM13.5 22H10.5V16H13.5V22ZM24.5 19C24.5 19.2652 24.3946 19.5196 24.2071 19.7071C24.0196 19.8946 23.7652 20 23.5 20H18.5C18.2348 20 17.9804 19.8946 17.7929 19.7071C17.6054 19.5196 17.5 19.2652 17.5 19C17.5 18.7348 17.6054 18.4804 17.7929 18.2929C17.9804 18.1054 18.2348 18 18.5 18H23.5C23.7652 18 24.0196 18.1054 24.2071 18.2929C24.3946 18.4804 24.5 18.7348 24.5 19ZM24.5 15C24.5 15.2652 24.3946 15.5196 24.2071 15.7071C24.0196 15.8946 23.7652 16 23.5 16H18.5C18.2348 16 17.9804 15.8946 17.7929 15.7071C17.6054 15.5196 17.5 15.2652 17.5 15C17.5 14.7348 17.6054 14.4804 17.7929 14.2929C17.9804 14.1054 18.2348 14 18.5 14H23.5C23.7652 14 24.0196 14.1054 24.2071 14.2929C24.3946 14.4804 24.5 14.7348 24.5 15ZM22.5 23C22.5 23.2652 22.3946 23.5196 22.2071 23.7071C22.0196 23.8946 21.7652 24 21.5 24H18.5C18.2348 24 17.9804 23.8946 17.7929 23.7071C17.6054 23.5196 17.5 23.2652 17.5 23C17.5 22.7348 17.6054 22.4804 17.7929 22.2929C17.9804 22.1054 18.2348 22 18.5 22H21.5C21.7652 22 22.0196 22.1054 22.2071 22.2929C22.3946 22.4804 22.5 22.7348 22.5 23Z" fill="#0F0E13"/>
<mask id="mask0_228_3000" style="mask-type:alpha" maskUnits="userSpaceOnUse" x="4" y="4" width="25" height="24">
<path d="M23.5 8H19.5V7C19.5 6.20435 19.1839 5.44129 18.6213 4.87868C18.0587 4.31607 17.2956 4 16.5 4C15.7044 4 14.9413 4.31607 14.3787 4.87868C13.8161 5.44129 13.5 6.20435 13.5 7V8H9.5C8.1744 8.00159 6.90356 8.52888 5.96622 9.46622C5.02888 10.4036 4.50159 11.6744 4.5 13L4.5 23C4.50159 24.3256 5.02888 25.5964 5.96622 26.5338C6.90356 27.4711 8.1744 27.9984 9.5 28H23.5C24.8256 27.9984 26.0964 27.4711 27.0338 26.5338C27.9711 25.5964 28.4984 24.3256 28.5 23V13C28.4984 11.6744 27.9711 10.4036 27.0338 9.46622C26.0964 8.52888 24.8256 8.00159 23.5 8ZM15.5 7C15.5 6.73478 15.6054 6.48043 15.7929 6.29289C15.9804 6.10536 16.2348 6 16.5 6C16.7652 6 17.0196 6.10536 17.2071 6.29289C17.3946 6.48043 17.5 6.73478 17.5 7V9C17.5 9.26522 17.3946 9.51957 17.2071 9.70711C17.0196 9.89464 16.7652 10 16.5 10C16.2348 10 15.9804 9.89464 15.7929 9.70711C15.6054 9.51957 15.5 9.26522 15.5 9V7ZM26.5 23C26.5 23.7956 26.1839 24.5587 25.6213 25.1213C25.0587 25.6839 24.2956 26 23.5 26H9.5C8.70435 26 7.94129 25.6839 7.37868 25.1213C6.81607 24.5587 6.5 23.7956 6.5 23V13C6.5 12.2044 6.81607 11.4413 7.37868 10.8787C7.94129 10.3161 8.70435 10 9.5 10H13.684C13.8876 10.5845 14.2682 11.0912 14.7727 11.4498C15.2773 11.8083 15.881 12.0009 16.5 12.0009C17.119 12.0009 17.7227 11.8083 18.2273 11.4498C18.7318 11.0912 19.1124 10.5845 19.316 10H23.5C24.2956 10 25.0587 10.3161 25.6213 10.8787C26.1839 11.4413 26.5 12.2044 26.5 13V23ZM14.5 14H9.5C9.23478 14 8.98043 14.1054 8.79289 14.2929C8.60536 14.4804 8.5 14.7348 8.5 15V23C8.5 23.2652 8.60536 23.5196 8.79289 23.7071C8.98043 23.8946 9.23478 24 9.5 24H14.5C14.7652 24 15.0196 23.8946 15.2071 23.7071C15.3946 23.5196 15.5 23.2652 15.5 23V15C15.5 14.7348 15.3946 14.4804 15.2071 14.2929C15.0196 14.1054 14.7652 14 14.5 14ZM13.5 22H10.5V16H13.5V22ZM24.5 19C24.5 19.2652 24.3946 19.5196 24.2071 19.7071C24.0196 19.8946 23.7652 20 23.5 20H18.5C18.2348 20 17.9804 19.8946 17.7929 19.7071C17.6054 19.5196 17.5 19.2652 17.5 19C17.5 18.7348 17.6054 18.4804 17.7929 18.2929C17.9804 18.1054 18.2348 18 18.5 18H23.5C23.7652 18 24.0196 18.1054 24.2071 18.2929C24.3946 18.4804 24.5 18.7348 24.5 19ZM24.5 15C24.5 15.2652 24.3946 15.5196 24.2071 15.7071C24.0196 15.8946 23.7652 16 23.5 16H18.5C18.2348 16 17.9804 15.8946 17.7929 15.7071C17.6054 15.5196 17.5 15.2652 17.5 15C17.5 14.7348 17.6054 14.4804 17.7929 14.2929C17.9804 14.1054 18.2348 14 18.5 14H23.5C23.7652 14 24.0196 14.1054 24.2071 14.2929C24.3946 14.4804 24.5 14.7348 24.5 15ZM22.5 23C22.5 23.2652 22.3946 23.5196 22.2071 23.7071C22.0196 23.8946 21.7652 24 21.5 24H18.5C18.2348 24 17.9804 23.8946 17.7929 23.7071C17.6054 23.5196 17.5 23.2652 17.5 23C17.5 22.7348 17.6054 22.4804 17.7929 22.2929C17.9804 22.1054 18.2348 22 18.5 22H21.5C21.7652 22 22.0196 22.1054 22.2071 22.2929C22.3946 22.4804 22.5 22.7348 22.5 23Z" fill="white"/>
</mask>
<g mask="url(#mask0_228_3000)">
<rect x="7.5" y="13" width="9" height="12" fill="#0F0E13"/>
</g>
</g>
<defs>
<clipPath id="clip0_228_3000">
<rect width="32" height="32" fill="white" transform="translate(0.5)"/>
</clipPath>
</defs>
</svg>
