<svg width="24" height="24" viewBox="0 0 24 24" fill="none" xmlns="http://www.w3.org/2000/svg">
<path d="M3.45803 12.3184C4.21721 10.2409 5.53611 8.40544 7.2737 7.00826C8.18046 6.11461 9.32324 5.48829 10.5729 5.2001C11.8225 4.91191 13.1292 4.97333 14.3452 5.37744C15.5613 5.78154 16.6381 6.5122 17.4541 7.48684C18.2701 8.46148 18.7927 9.64122 18.9628 10.8927C19.0768 8.43262 18.4285 5.99647 17.1039 3.90682C16.0776 2.30555 14.6653 0.978293 12.9924 0.0428479C12.6597 0.0152481 12.3239 -0.00210571 11.984 -0.00210571C9.61677 -0.00166705 7.30269 0.688373 5.33365 1.98098C3.36461 3.27359 1.8288 5.11086 0.919916 7.26106C0.0110335 9.41127 -0.230209 11.7781 0.226628 14.063C0.683466 16.3479 1.81792 18.4486 3.48689 20.1C2.57534 17.5853 2.56515 14.8396 3.45803 12.3184Z" fill="url(#paint0_radial_501_3784)"/>
<path d="M9.53221 18.0535C8.48408 17.6301 7.55843 16.9588 6.83741 16.099C6.1164 15.2392 5.62234 14.2176 5.3991 13.1248C5.17585 12.0321 5.23032 10.902 5.55769 9.83496C5.88506 8.7679 6.47518 7.79687 7.27567 7.00806C5.53805 8.40521 4.21916 10.2407 3.46002 12.3182C2.56535 14.84 2.57439 17.587 3.48566 20.103C4.81433 21.4181 6.43961 22.4064 8.22947 22.9875C10.0193 23.5687 11.9233 23.7263 13.7867 23.4477C15.6501 23.169 17.4205 22.4619 18.9539 21.3838C20.4874 20.3057 21.7407 18.887 22.6121 17.2429C20.6847 18.675 18.3579 19.4928 15.9443 19.5865C13.7051 19.6555 11.4887 19.1257 9.5314 18.0535H9.53221Z" fill="url(#paint1_radial_501_3784)"/>
<path d="M12.9942 0.0449829C14.6671 0.980428 16.0793 2.30771 17.1056 3.90897C18.4303 5.99861 19.0786 8.43475 18.9646 10.8949C19.1249 12.072 18.9675 13.2699 18.5083 14.3683C18.0491 15.4667 17.3042 16.4268 16.3485 17.1524C15.3927 17.878 14.2597 18.3435 13.0632 18.5021C11.8667 18.6606 10.6489 18.5067 9.532 18.0558C11.4893 19.1281 13.7057 19.6579 15.9449 19.5888C18.3585 19.4952 20.6853 18.6774 22.6127 17.2452C23.5261 15.5228 23.9925 13.6051 23.9706 11.6625C23.9487 9.72001 23.4391 7.81292 22.4871 6.11091C21.5351 4.4089 20.1702 2.96472 18.5139 1.90685C16.8576 0.848984 14.9612 0.210219 12.9934 0.0473654L12.9942 0.0449829Z" fill="url(#paint2_radial_501_3784)"/>
<defs>
<radialGradient id="paint0_radial_501_3784" cx="0" cy="0" r="1" gradientUnits="userSpaceOnUse" gradientTransform="translate(0.00132751 14.5719) scale(22.2568 23.5798)">
<stop stop-color="#FFDD55"/>
<stop offset="0.1" stop-color="#FFDD55"/>
<stop offset="0.5" stop-color="#FF543E"/>
<stop offset="0.833" stop-color="#FF543E"/>
<stop offset="1" stop-color="#0B1222" stop-opacity="0.251"/>
</radialGradient>
<radialGradient id="paint1_radial_501_3784" cx="0" cy="0" r="1" gradientUnits="userSpaceOnUse" gradientTransform="translate(4.18271 11.0851) scale(28.5557 23.8824)">
<stop stop-color="#0B1222"/>
<stop offset="0.26" stop-color="#3771C8"/>
<stop offset="1" stop-color="#4ABDFF"/>
</radialGradient>
<radialGradient id="paint2_radial_501_3784" cx="0" cy="0" r="1" gradientUnits="userSpaceOnUse" gradientTransform="translate(18.0657 -0.73701) scale(15.9555 21.6026)">
<stop stop-color="#14BAEF"/>
<stop offset="0.361" stop-color="#4977F1"/>
<stop offset="0.868" stop-color="#2155DD"/>
<stop offset="1" stop-color="#123283"/>
</radialGradient>
</defs>
</svg>
