<svg width="33" height="32" viewBox="0 0 33 32" fill="none" xmlns="http://www.w3.org/2000/svg">
<path d="M4.5 9.33333V6.66667C4.5 5.95942 4.78095 5.28115 5.28105 4.78105C5.78115 4.28095 6.45942 4 7.16667 4H9.83333" stroke="#0F0E13" stroke-width="2" stroke-linecap="round" stroke-linejoin="round"/>
<path d="M23.1667 4H25.8334C26.5406 4 27.2189 4.28095 27.719 4.78105C28.2191 5.28115 28.5 5.95942 28.5 6.66667V9.33333" stroke="#0F0E13" stroke-width="2" stroke-linecap="round" stroke-linejoin="round"/>
<path d="M28.5 22.6667V25.3333C28.5 26.0406 28.2191 26.7189 27.719 27.2189C27.2189 27.719 26.5406 28 25.8334 28H23.1667" stroke="#0F0E13" stroke-width="2" stroke-linecap="round" stroke-linejoin="round"/>
<path d="M9.83333 28H7.16667C6.45942 28 5.78115 27.719 5.28105 27.2189C4.78095 26.7189 4.5 26.0406 4.5 25.3333V22.6667" stroke="#0F0E13" stroke-width="2" stroke-linecap="round" stroke-linejoin="round"/>
<g clip-path="url(#clip0_228_2859)">
<path d="M10.4444 8.83333H9.61109C9.45768 8.83333 9.33331 8.95769 9.33331 9.11111V9.94444C9.33331 10.0979 9.45768 10.2222 9.61109 10.2222H10.4444C10.5978 10.2222 10.7222 10.0979 10.7222 9.94444V9.11111C10.7222 8.95769 10.5978 8.83333 10.4444 8.83333Z" stroke="#0F0E13" stroke-width="0.555556" stroke-linecap="round" stroke-linejoin="round"/>
<path d="M14.0558 8.83333H13.2224C13.069 8.83333 12.9446 8.95769 12.9446 9.11111V9.94444C12.9446 10.0979 13.069 10.2222 13.2224 10.2222H14.0558C14.2092 10.2222 14.3335 10.0979 14.3335 9.94444V9.11111C14.3335 8.95769 14.2092 8.83333 14.0558 8.83333Z" stroke="#0F0E13" stroke-width="0.555556" stroke-linecap="round" stroke-linejoin="round"/>
<path d="M10.4444 12.4443H9.61109C9.45768 12.4443 9.33331 12.5687 9.33331 12.7221V13.5554C9.33331 13.7089 9.45768 13.8332 9.61109 13.8332H10.4444C10.5978 13.8332 10.7222 13.7089 10.7222 13.5554V12.7221C10.7222 12.5687 10.5978 12.4443 10.4444 12.4443Z" stroke="#0F0E13" stroke-width="0.555556" stroke-linecap="round" stroke-linejoin="round"/>
<path d="M14.3335 12.4443H13.5002C13.3529 12.4443 13.2115 12.5029 13.1074 12.6071C13.0032 12.7112 12.9446 12.8525 12.9446 12.9999V13.8332" stroke="#0F0E13" stroke-width="0.555556" stroke-linecap="round" stroke-linejoin="round"/>
<path d="M14.3333 13.8333V13.8376" stroke="#0F0E13" stroke-width="0.555556" stroke-linecap="round" stroke-linejoin="round"/>
<path d="M11.8335 9.94434V10.7777C11.8335 10.925 11.775 11.0663 11.6708 11.1705C11.5666 11.2747 11.4253 11.3332 11.278 11.3332H10.4446" stroke="#0F0E13" stroke-width="0.555556" stroke-linecap="round" stroke-linejoin="round"/>
<path d="M9.33331 11.3333H9.33756" stroke="#0F0E13" stroke-width="0.555556" stroke-linecap="round" stroke-linejoin="round"/>
<path d="M11.8333 8.83333H11.8376" stroke="#0F0E13" stroke-width="0.555556" stroke-linecap="round" stroke-linejoin="round"/>
<path d="M11.8333 12.4443V12.4486" stroke="#0F0E13" stroke-width="0.555556" stroke-linecap="round" stroke-linejoin="round"/>
<path d="M12.9446 11.3333H13.2224" stroke="#0F0E13" stroke-width="0.555556" stroke-linecap="round" stroke-linejoin="round"/>
<path d="M14.3333 11.3333V11.3376" stroke="#0F0E13" stroke-width="0.555556" stroke-linecap="round" stroke-linejoin="round"/>
<path d="M11.8333 13.8334V13.5557" stroke="#0F0E13" stroke-width="0.555556" stroke-linecap="round" stroke-linejoin="round"/>
</g>
<g clip-path="url(#clip1_228_2859)">
<path d="M19.7776 8.83333H18.9443C18.7909 8.83333 18.6665 8.95769 18.6665 9.11111V9.94444C18.6665 10.0979 18.7909 10.2222 18.9443 10.2222H19.7776C19.931 10.2222 20.0554 10.0979 20.0554 9.94444V9.11111C20.0554 8.95769 19.931 8.83333 19.7776 8.83333Z" stroke="#0F0E13" stroke-width="0.555556" stroke-linecap="round" stroke-linejoin="round"/>
<path d="M23.3889 8.83333H22.5556C22.4022 8.83333 22.2778 8.95769 22.2778 9.11111V9.94444C22.2778 10.0979 22.4022 10.2222 22.5556 10.2222H23.3889C23.5424 10.2222 23.6667 10.0979 23.6667 9.94444V9.11111C23.6667 8.95769 23.5424 8.83333 23.3889 8.83333Z" stroke="#0F0E13" stroke-width="0.555556" stroke-linecap="round" stroke-linejoin="round"/>
<path d="M19.7776 12.4443H18.9443C18.7909 12.4443 18.6665 12.5687 18.6665 12.7221V13.5554C18.6665 13.7089 18.7909 13.8332 18.9443 13.8332H19.7776C19.931 13.8332 20.0554 13.7089 20.0554 13.5554V12.7221C20.0554 12.5687 19.931 12.4443 19.7776 12.4443Z" stroke="#0F0E13" stroke-width="0.555556" stroke-linecap="round" stroke-linejoin="round"/>
<path d="M23.6667 12.4443H22.8334C22.686 12.4443 22.5447 12.5029 22.4406 12.6071C22.3364 12.7112 22.2778 12.8525 22.2778 12.9999V13.8332" stroke="#0F0E13" stroke-width="0.555556" stroke-linecap="round" stroke-linejoin="round"/>
<path d="M23.6665 13.8333V13.8376" stroke="#0F0E13" stroke-width="0.555556" stroke-linecap="round" stroke-linejoin="round"/>
<path d="M21.1667 9.94434V10.7777C21.1667 10.925 21.1082 11.0663 21.004 11.1705C20.8998 11.2747 20.7585 11.3332 20.6112 11.3332H19.7778" stroke="#0F0E13" stroke-width="0.555556" stroke-linecap="round" stroke-linejoin="round"/>
<path d="M18.6665 11.3333H18.6707" stroke="#0F0E13" stroke-width="0.555556" stroke-linecap="round" stroke-linejoin="round"/>
<path d="M21.1665 8.83333H21.1707" stroke="#0F0E13" stroke-width="0.555556" stroke-linecap="round" stroke-linejoin="round"/>
<path d="M21.1665 12.4443V12.4486" stroke="#0F0E13" stroke-width="0.555556" stroke-linecap="round" stroke-linejoin="round"/>
<path d="M22.2778 11.3333H22.5556" stroke="#0F0E13" stroke-width="0.555556" stroke-linecap="round" stroke-linejoin="round"/>
<path d="M23.6665 11.3333V11.3376" stroke="#0F0E13" stroke-width="0.555556" stroke-linecap="round" stroke-linejoin="round"/>
<path d="M21.1665 13.8334V13.5557" stroke="#0F0E13" stroke-width="0.555556" stroke-linecap="round" stroke-linejoin="round"/>
</g>
<g clip-path="url(#clip2_228_2859)">
<path d="M10.4444 18.1667H9.61109C9.45768 18.1667 9.33331 18.2911 9.33331 18.4445V19.2779C9.33331 19.4313 9.45768 19.5556 9.61109 19.5556H10.4444C10.5978 19.5556 10.7222 19.4313 10.7222 19.2779V18.4445C10.7222 18.2911 10.5978 18.1667 10.4444 18.1667Z" stroke="#0F0E13" stroke-width="0.555556" stroke-linecap="round" stroke-linejoin="round"/>
<path d="M14.0558 18.1667H13.2224C13.069 18.1667 12.9446 18.2911 12.9446 18.4445V19.2779C12.9446 19.4313 13.069 19.5556 13.2224 19.5556H14.0558C14.2092 19.5556 14.3335 19.4313 14.3335 19.2779V18.4445C14.3335 18.2911 14.2092 18.1667 14.0558 18.1667Z" stroke="#0F0E13" stroke-width="0.555556" stroke-linecap="round" stroke-linejoin="round"/>
<path d="M10.4444 21.7778H9.61109C9.45768 21.7778 9.33331 21.9021 9.33331 22.0555V22.8889C9.33331 23.0423 9.45768 23.1666 9.61109 23.1666H10.4444C10.5978 23.1666 10.7222 23.0423 10.7222 22.8889V22.0555C10.7222 21.9021 10.5978 21.7778 10.4444 21.7778Z" stroke="#0F0E13" stroke-width="0.555556" stroke-linecap="round" stroke-linejoin="round"/>
<path d="M14.3335 21.7778H13.5002C13.3529 21.7778 13.2115 21.8363 13.1074 21.9405C13.0032 22.0447 12.9446 22.186 12.9446 22.3333V23.1666" stroke="#0F0E13" stroke-width="0.555556" stroke-linecap="round" stroke-linejoin="round"/>
<path d="M14.3333 23.1667V23.171" stroke="#0F0E13" stroke-width="0.555556" stroke-linecap="round" stroke-linejoin="round"/>
<path d="M11.8335 19.2778V20.1111C11.8335 20.2584 11.775 20.3997 11.6708 20.5039C11.5666 20.6081 11.4253 20.6666 11.278 20.6666H10.4446" stroke="#0F0E13" stroke-width="0.555556" stroke-linecap="round" stroke-linejoin="round"/>
<path d="M9.33331 20.6667H9.33756" stroke="#0F0E13" stroke-width="0.555556" stroke-linecap="round" stroke-linejoin="round"/>
<path d="M11.8333 18.1667H11.8376" stroke="#0F0E13" stroke-width="0.555556" stroke-linecap="round" stroke-linejoin="round"/>
<path d="M11.8333 21.7778V21.782" stroke="#0F0E13" stroke-width="0.555556" stroke-linecap="round" stroke-linejoin="round"/>
<path d="M12.9446 20.6667H13.2224" stroke="#0F0E13" stroke-width="0.555556" stroke-linecap="round" stroke-linejoin="round"/>
<path d="M14.3333 20.6667V20.671" stroke="#0F0E13" stroke-width="0.555556" stroke-linecap="round" stroke-linejoin="round"/>
<path d="M11.8333 23.1669V22.8891" stroke="#0F0E13" stroke-width="0.555556" stroke-linecap="round" stroke-linejoin="round"/>
</g>
<g clip-path="url(#clip3_228_2859)">
<path d="M19.7776 18.1668H18.9443C18.7909 18.1668 18.6665 18.2912 18.6665 18.4446V19.2779C18.6665 19.4314 18.7909 19.5557 18.9443 19.5557H19.7776C19.931 19.5557 20.0554 19.4314 20.0554 19.2779V18.4446C20.0554 18.2912 19.931 18.1668 19.7776 18.1668Z" stroke="#0F0E13" stroke-width="0.555556" stroke-linecap="round" stroke-linejoin="round"/>
<path d="M23.3889 18.1668H22.5556C22.4022 18.1668 22.2778 18.2912 22.2778 18.4446V19.2779C22.2778 19.4314 22.4022 19.5557 22.5556 19.5557H23.3889C23.5424 19.5557 23.6667 19.4314 23.6667 19.2779V18.4446C23.6667 18.2912 23.5424 18.1668 23.3889 18.1668Z" stroke="#0F0E13" stroke-width="0.555556" stroke-linecap="round" stroke-linejoin="round"/>
<path d="M19.7776 21.7778H18.9443C18.7909 21.7778 18.6665 21.9022 18.6665 22.0556V22.889C18.6665 23.0424 18.7909 23.1667 18.9443 23.1667H19.7776C19.931 23.1667 20.0554 23.0424 20.0554 22.889V22.0556C20.0554 21.9022 19.931 21.7778 19.7776 21.7778Z" stroke="#0F0E13" stroke-width="0.555556" stroke-linecap="round" stroke-linejoin="round"/>
<path d="M23.6667 21.7778H22.8334C22.686 21.7778 22.5447 21.8364 22.4406 21.9406C22.3364 22.0447 22.2778 22.1861 22.2778 22.3334V23.1667" stroke="#0F0E13" stroke-width="0.555556" stroke-linecap="round" stroke-linejoin="round"/>
<path d="M23.6665 23.1668V23.1711" stroke="#0F0E13" stroke-width="0.555556" stroke-linecap="round" stroke-linejoin="round"/>
<path d="M21.1667 19.2778V20.1112C21.1667 20.2585 21.1082 20.3998 21.004 20.504C20.8998 20.6082 20.7585 20.6667 20.6112 20.6667H19.7778" stroke="#0F0E13" stroke-width="0.555556" stroke-linecap="round" stroke-linejoin="round"/>
<path d="M18.6665 20.6668H18.6707" stroke="#0F0E13" stroke-width="0.555556" stroke-linecap="round" stroke-linejoin="round"/>
<path d="M21.1665 18.1668H21.1707" stroke="#0F0E13" stroke-width="0.555556" stroke-linecap="round" stroke-linejoin="round"/>
<path d="M21.1665 21.7778V21.7821" stroke="#0F0E13" stroke-width="0.555556" stroke-linecap="round" stroke-linejoin="round"/>
<path d="M22.2778 20.6668H22.5556" stroke="#0F0E13" stroke-width="0.555556" stroke-linecap="round" stroke-linejoin="round"/>
<path d="M23.6665 20.6668V20.6711" stroke="#0F0E13" stroke-width="0.555556" stroke-linecap="round" stroke-linejoin="round"/>
<path d="M21.1665 23.1669V22.8892" stroke="#0F0E13" stroke-width="0.555556" stroke-linecap="round" stroke-linejoin="round"/>
</g>
<defs>
<clipPath id="clip0_228_2859">
<rect width="6.66667" height="6.66667" fill="white" transform="translate(8.5 8)"/>
</clipPath>
<clipPath id="clip1_228_2859">
<rect width="6.66667" height="6.66667" fill="white" transform="translate(17.8333 8)"/>
</clipPath>
<clipPath id="clip2_228_2859">
<rect width="6.66667" height="6.66667" fill="white" transform="translate(8.5 17.3333)"/>
</clipPath>
<clipPath id="clip3_228_2859">
<rect width="6.66667" height="6.66667" fill="white" transform="translate(17.8333 17.3334)"/>
</clipPath>
</defs>
</svg>
