<svg width="33" height="32" viewBox="0 0 33 32" fill="none" xmlns="http://www.w3.org/2000/svg">
<path d="M4.5 9.33333V6.66667C4.5 5.95942 4.78095 5.28115 5.28105 4.78105C5.78115 4.28095 6.45942 4 7.16667 4H9.83333" stroke="#0F0E13" stroke-width="2" stroke-linecap="round" stroke-linejoin="round"/>
<path d="M23.1667 4H25.8334C26.5406 4 27.2189 4.28095 27.719 4.78105C28.2191 5.28115 28.5 5.95942 28.5 6.66667V9.33333" stroke="#0F0E13" stroke-width="2" stroke-linecap="round" stroke-linejoin="round"/>
<path d="M28.5 22.6667V25.3333C28.5 26.0406 28.2191 26.7189 27.719 27.2189C27.2189 27.719 26.5406 28 25.8334 28H23.1667" stroke="#0F0E13" stroke-width="2" stroke-linecap="round" stroke-linejoin="round"/>
<path d="M9.83333 28H7.16667C6.45942 28 5.78115 27.719 5.28105 27.2189C4.78095 26.7189 4.5 26.0406 4.5 25.3333V22.6667" stroke="#0F0E13" stroke-width="2" stroke-linecap="round" stroke-linejoin="round"/>
<path d="M9.83331 16H23.1666" stroke="#0F0E13" stroke-width="2" stroke-linecap="round" stroke-linejoin="round"/>
</svg>
