<svg width="156" height="24" viewBox="0 0 156 24" fill="none" xmlns="http://www.w3.org/2000/svg">
<path d="M52.9386 22.359C51.8892 22.3838 50.8453 22.2026 49.868 21.8259C48.8907 21.4491 47.9996 20.8844 47.2467 20.1649C46.4939 19.4453 45.8945 18.5852 45.4836 17.6351C45.0726 16.6849 44.8585 15.6636 44.8535 14.631C44.8332 13.6156 45.0205 12.6065 45.4043 11.6637C45.7881 10.7209 46.3607 9.86356 47.088 9.14269C47.8152 8.42182 48.6824 7.8521 49.6378 7.46736C50.5933 7.08263 51.6177 6.89074 52.65 6.90309C56.0088 6.90309 58.5771 8.54252 59.6633 11.2804C59.8806 11.8324 59.5623 12.1928 58.9827 12.1928H57.0693C56.8652 12.1993 56.664 12.144 56.4929 12.0344C56.3217 11.9248 56.1888 11.7663 56.1122 11.5801C55.7728 11.0076 55.2797 10.5382 54.6869 10.2234C54.0941 9.90857 53.4245 9.76054 52.7518 9.79555C52.1285 9.81361 51.5151 9.95367 50.9474 10.2076C50.3797 10.4615 49.8692 10.8241 49.4456 11.2743C49.022 11.7245 48.6938 12.2532 48.4803 12.8295C48.2668 13.4059 48.1721 14.0183 48.2019 14.631C48.1847 15.2704 48.3 15.9066 48.5409 16.5007C48.7817 17.0949 49.143 17.6345 49.6028 18.0868C50.0626 18.5391 50.6112 18.8945 51.2151 19.1315C51.8191 19.3684 52.4658 19.4819 53.1158 19.4649C53.8951 19.4631 54.6651 19.2982 55.3747 18.9812C56.0842 18.6641 56.7171 18.2022 57.2312 17.626C57.2887 17.5357 57.365 17.4584 57.455 17.3993C57.5451 17.3401 57.6469 17.3004 57.7537 17.2827C57.8605 17.2651 57.9699 17.2699 58.0746 17.2968C58.1794 17.3238 58.2772 17.3723 58.3615 17.4391L59.0132 17.8815C59.1111 17.9317 59.1964 18.0025 59.2632 18.0889C59.33 18.1753 59.3766 18.2751 59.3996 18.3813C59.4225 18.4875 59.4214 18.5973 59.3962 18.703C59.3709 18.8087 59.3223 18.9076 59.2537 18.9926C58.61 20.0213 57.7095 20.8709 56.6378 21.4605C55.5662 22.0502 54.3589 22.3603 53.131 22.3613C53.0663 22.3613 53.0022 22.3606 52.9386 22.359ZM69.0101 22.359C64.7784 22.359 61.6778 18.9374 61.6802 14.631C61.6802 10.3397 64.7808 6.90309 69.0125 6.90309C70.0137 6.88896 71.0056 7.09288 71.9173 7.50024C72.8289 7.90761 73.6376 8.50832 74.2855 9.25933V8.0473C74.2729 7.9396 74.2851 7.83048 74.3213 7.72808C74.3575 7.62567 74.4167 7.53261 74.4945 7.45584C74.5723 7.37906 74.6667 7.32055 74.7707 7.28464C74.8747 7.24874 74.9856 7.23638 75.0951 7.24848H76.7625C76.8722 7.23615 76.9833 7.24833 77.0875 7.28411C77.1917 7.3199 77.2864 7.37836 77.3644 7.45515C77.4425 7.53194 77.5019 7.62507 77.5383 7.7276C77.5747 7.83012 77.5871 7.93941 77.5745 8.0473V21.2164C77.5876 21.3245 77.5756 21.4341 77.5395 21.5371C77.5033 21.64 77.444 21.7335 77.3658 21.8107C77.2877 21.8878 77.1928 21.9466 77.0884 21.9826C76.9839 22.0185 76.8725 22.0307 76.7625 22.0183H75.0951C74.9856 22.0307 74.8746 22.0185 74.7704 21.9828C74.6663 21.947 74.5717 21.8886 74.4937 21.8119C74.4158 21.7352 74.3564 21.6421 74.3201 21.5397C74.2837 21.4373 74.2714 21.3281 74.2839 21.2203V20.0217C73.6432 20.7551 72.849 21.3437 71.9557 21.7473C71.0623 22.1508 70.0909 22.3597 69.1079 22.3598L69.0101 22.359ZM66.3079 18.0132C66.9548 18.7012 67.8026 19.1749 68.7346 19.3692C69.6665 19.5635 70.6368 19.4688 71.5118 19.0982C72.3868 18.7275 73.1234 18.0991 73.6203 17.2995C74.1172 16.4999 74.3499 15.5685 74.2863 14.6334C74.3183 14.0158 74.2223 13.3982 74.0041 12.8183C73.7859 12.2383 73.45 11.7081 73.017 11.2598C72.5839 10.8115 72.0627 10.4546 71.485 10.2106C70.9073 9.96673 70.2852 9.84095 69.6566 9.84095C69.028 9.84095 68.4059 9.96673 67.8282 10.2106C67.2505 10.4546 66.7293 10.8115 66.2962 11.2598C65.8632 11.7081 65.5273 12.2383 65.3091 12.8183C65.0909 13.3982 64.9949 14.0158 65.0269 14.6334C65.0001 15.2524 65.0997 15.8703 65.3197 16.4508C65.5397 17.0313 65.8757 17.5625 66.3079 18.0132ZM116.532 14.6334C116.532 10.342 120.037 6.90546 124.761 6.90546C129.486 6.90546 132.979 10.3412 132.979 14.6334C132.979 18.9256 129.487 22.3613 124.761 22.3613C120.036 22.3613 116.53 18.924 116.532 14.6334ZM128.236 18.0629C128.691 17.6128 129.05 17.0777 129.291 16.4889C129.533 15.9002 129.652 15.2698 129.642 14.635C129.654 13.9971 129.537 13.3633 129.297 12.7706C129.057 12.178 128.699 11.6383 128.244 11.1831C127.79 10.7279 127.248 10.3663 126.65 10.1195C126.052 9.87271 125.41 9.74559 124.761 9.74559C124.113 9.74559 123.471 9.87271 122.873 10.1195C122.275 10.3663 121.733 10.7279 121.278 11.1831C120.824 11.6383 120.466 12.178 120.226 12.7706C119.986 13.3633 119.869 13.9971 119.88 14.635C119.878 15.5884 120.164 16.5211 120.7 17.3151C121.237 18.1091 122.001 18.7288 122.895 19.0958C123.79 19.4629 124.775 19.5608 125.726 19.3772C126.677 19.1936 127.552 18.7368 128.239 18.0645L128.236 18.0629ZM28.8983 19.1535C28.8222 19.0786 28.7627 18.9891 28.7234 18.8906C28.6841 18.7921 28.6658 18.6867 28.6698 18.581C28.6738 18.4754 28.7002 18.3718 28.7471 18.2768C28.794 18.1817 28.8605 18.0974 28.9424 18.029L29.4642 17.4715C29.5292 17.3831 29.6143 17.3109 29.7127 17.2606C29.8111 17.2103 29.9201 17.1833 30.0309 17.1817C30.1418 17.1802 30.2515 17.2042 30.3513 17.2517C30.4511 17.2993 30.5382 17.3691 30.6057 17.4557C31.8509 18.691 33.5329 19.4057 35.3007 19.4508C37.5893 19.4508 39.2286 18.3255 39.2286 16.5859C39.2286 15.0324 38.1673 13.7912 34.7653 13.0925C30.6514 12.2401 28.5215 10.2135 28.5215 7.30526C28.5215 4.01142 31.231 1.71748 35.1148 1.71748C38.4767 1.71748 41.5076 3.31275 42.1425 6.72014C42.2443 7.26189 41.9261 7.57653 41.3754 7.57653H39.5316C39.0411 7.57653 38.7942 7.33365 38.6499 6.84868C38.2443 5.39457 36.9408 4.62571 35.2599 4.62571C33.36 4.62571 31.9845 5.60906 31.9845 7.06317C31.9845 8.64503 33.2446 9.68515 36.2442 10.3562C40.823 11.3814 42.694 13.4316 42.694 16.5141C42.694 19.9215 39.926 22.359 35.405 22.359C34.1478 22.3266 32.9133 22.0226 31.7889 21.4687C30.6645 20.9147 29.6776 20.1243 28.8983 19.1535ZM100.2 21.8117C100.122 21.7351 100.062 21.642 100.025 21.5395C99.9885 21.4369 99.976 21.3275 99.9884 21.2195V10.1007H98.0212C97.9116 10.113 97.8006 10.1009 97.6964 10.0651C97.5923 10.0294 97.4977 9.971 97.4196 9.8943C97.3416 9.81761 97.2821 9.72458 97.2457 9.62215C97.2093 9.51972 97.1968 9.41053 97.2092 9.3027V8.0473C97.1966 7.93941 97.209 7.83012 97.2454 7.7276C97.2818 7.62507 97.3412 7.53194 97.4193 7.45515C97.4973 7.37836 97.592 7.3199 97.6962 7.28411C97.8004 7.24833 97.9115 7.23615 98.0212 7.24848H99.9916V6.38106C99.9916 2.9027 101.835 1.2057 105.629 1.2057C105.919 1.20565 106.209 1.22012 106.498 1.24907C106.606 1.24969 106.712 1.27264 106.81 1.31642C106.908 1.3602 106.996 1.42384 107.067 1.50317C107.139 1.5825 107.192 1.67574 107.224 1.77681C107.257 1.87787 107.267 1.98449 107.254 2.08969V3.18579C107.254 3.71255 107.023 3.98067 106.587 3.95622C106.356 3.94282 106.124 3.94282 105.92 3.94282C104.021 3.94282 103.298 4.76766 103.298 6.42207V7.24848H106.438C106.548 7.23597 106.659 7.24803 106.763 7.28376C106.867 7.31949 106.962 7.37797 107.04 7.45481C107.118 7.53165 107.178 7.62487 107.214 7.72748C107.25 7.83008 107.262 7.93942 107.249 8.0473V9.30112C107.262 9.409 107.25 9.51834 107.214 9.62095C107.178 9.72355 107.118 9.81677 107.04 9.89361C106.962 9.97045 106.867 10.0289 106.763 10.0647C106.659 10.1004 106.548 10.1125 106.438 10.0999H103.296V21.2187C103.308 21.3266 103.296 21.4359 103.26 21.5385C103.224 21.641 103.164 21.7342 103.086 21.8111C103.008 21.8879 102.914 21.9465 102.81 21.9824C102.705 22.0183 102.594 22.0305 102.485 22.0183H100.801C100.691 22.031 100.58 22.0191 100.475 21.9835C100.371 21.9478 100.276 21.8894 100.198 21.8125L100.2 21.8117ZM112.473 22.0175H110.789C110.679 22.0299 110.568 22.0177 110.464 21.9819C110.36 21.946 110.265 21.8874 110.187 21.8104C110.109 21.7334 110.049 21.64 110.013 21.5373C109.977 21.4346 109.965 21.3251 109.978 21.2171V2.00294C109.966 1.89511 109.978 1.78592 110.015 1.68349C110.051 1.58106 110.11 1.48803 110.188 1.41134C110.267 1.33464 110.361 1.27625 110.465 1.24051C110.569 1.20477 110.68 1.1926 110.79 1.20491H112.473C112.583 1.19279 112.694 1.20519 112.798 1.24117C112.903 1.27716 112.997 1.33581 113.075 1.41275C113.153 1.48969 113.212 1.58293 113.248 1.68553C113.284 1.78813 113.297 1.89744 113.284 2.00531V21.2187C113.296 21.3264 113.284 21.4355 113.248 21.5379C113.211 21.6403 113.152 21.7333 113.074 21.81C112.996 21.8867 112.902 21.9451 112.798 21.9809C112.694 22.0167 112.583 22.029 112.473 22.0167L112.473 22.0175ZM94.6889 22.0175H93.0055C92.896 22.0297 92.7851 22.0175 92.681 21.9817C92.577 21.9459 92.4824 21.8874 92.4045 21.8108C92.3265 21.7341 92.2672 21.6411 92.2308 21.5387C92.1944 21.4364 92.1819 21.3273 92.1943 21.2195V13.1935C92.2206 12.7473 92.1519 12.3007 91.9925 11.8822C91.8331 11.4637 91.5865 11.0826 91.2686 10.7633C90.9507 10.444 90.5685 10.1937 90.1465 10.0282C89.7244 9.8628 89.2719 9.78596 88.8179 9.80265C88.2883 9.81608 87.7667 9.93317 87.2836 10.1471C86.8005 10.361 86.3656 10.6674 86.0042 11.0485C85.6428 11.4295 85.3621 11.8776 85.1787 12.3665C84.9952 12.8555 84.9126 13.3754 84.9357 13.8961V21.2227C84.9479 21.3303 84.9352 21.4392 84.8987 21.5413C84.8622 21.6434 84.8028 21.7362 84.7248 21.8126C84.6469 21.8891 84.5524 21.9472 84.4485 21.9829C84.3446 22.0185 84.2338 22.0306 84.1245 22.0183H82.4291C82.3195 22.0305 82.2086 22.0182 82.1046 21.9824C82.0005 21.9466 81.906 21.8882 81.828 21.8116C81.7501 21.7349 81.6907 21.6419 81.6543 21.5395C81.6179 21.4372 81.6055 21.3281 81.6178 21.2203V8.0473C81.6053 7.93948 81.6177 7.83028 81.654 7.72781C81.6904 7.62535 81.7497 7.53226 81.8277 7.45549C81.9056 7.37872 82.0002 7.32024 82.1043 7.28439C82.2085 7.24855 82.3195 7.23628 82.4291 7.24848H84.1245C84.2341 7.23612 84.3452 7.24829 84.4494 7.28408C84.5536 7.31987 84.6482 7.37835 84.7262 7.45515C84.8042 7.53196 84.8636 7.62511 84.8998 7.72764C84.9361 7.83018 84.9484 7.93945 84.9357 8.0473V9.21517C85.457 8.50185 86.1431 7.92055 86.9375 7.51913C87.7319 7.11771 88.6118 6.90765 89.5049 6.90625C93.1121 6.90625 95.5042 9.27194 95.5042 12.9064V21.2187C95.5169 21.327 95.5046 21.4367 95.4681 21.5395C95.4316 21.6424 95.3719 21.7359 95.2934 21.8128C95.215 21.8897 95.1199 21.9482 95.0152 21.9838C94.9105 22.0194 94.7989 22.0312 94.6889 22.0183V22.0175ZM150.829 22.0175H148.829C148.621 22.0352 148.415 21.9765 148.249 21.8528C148.083 21.7292 147.969 21.5493 147.93 21.348L145.119 11.5399L142.322 21.348C142.284 21.5494 142.17 21.7295 142.004 21.8533C141.838 21.977 141.631 22.0356 141.424 22.0175H139.424C139.216 22.0369 139.009 21.9808 138.841 21.8599C138.672 21.739 138.555 21.5617 138.511 21.3614L134.325 8.14745C134.151 7.59072 134.411 7.24848 134.99 7.24848H136.73C136.938 7.23084 137.145 7.28963 137.311 7.41347C137.477 7.53731 137.59 7.71738 137.629 7.91877L140.483 17.8389L143.251 7.92902C143.286 7.72521 143.398 7.54198 143.565 7.41565C143.731 7.28932 143.94 7.22909 144.149 7.24691H146.091C146.3 7.2323 146.507 7.29415 146.673 7.42061C146.838 7.54706 146.951 7.72922 146.988 7.93217L149.772 17.8389L152.611 7.91877C152.65 7.71729 152.763 7.53712 152.929 7.41325C153.095 7.28938 153.302 7.23066 153.51 7.24848H155.263C155.842 7.24848 156.104 7.58914 155.929 8.14745L151.742 21.3614C151.7 21.5482 151.595 21.7154 151.444 21.8354C151.293 21.9554 151.104 22.0211 150.91 22.0215C150.883 22.0183 150.857 22.0183 150.83 22.0183L150.829 22.0175Z" fill="#000B21"/>
<path d="M3.45803 12.3184C4.21721 10.2409 5.53611 8.40544 7.2737 7.00826C8.18046 6.11461 9.32324 5.48829 10.5729 5.2001C11.8225 4.91191 13.1292 4.97333 14.3452 5.37744C15.5613 5.78154 16.6381 6.5122 17.4541 7.48684C18.2701 8.46148 18.7927 9.64122 18.9628 10.8927C19.0768 8.43262 18.4285 5.99647 17.1039 3.90682C16.0776 2.30555 14.6653 0.978293 12.9924 0.0428479C12.6597 0.0152481 12.3239 -0.00210571 11.984 -0.00210571C9.61677 -0.00166705 7.30269 0.688373 5.33365 1.98098C3.36461 3.27359 1.8288 5.11085 0.919916 7.26106C0.0110335 9.41127 -0.230209 11.7781 0.226628 14.063C0.683466 16.3479 1.81792 18.4486 3.48689 20.1C2.57534 17.5853 2.56515 14.8396 3.45803 12.3184V12.3184Z" fill="url(#paint0_radial_501_3782)"/>
<path d="M9.53221 18.0535C8.48408 17.6301 7.55843 16.9588 6.83741 16.099C6.1164 15.2392 5.62234 14.2176 5.3991 13.1248C5.17585 12.0321 5.23032 10.902 5.55769 9.83496C5.88506 8.7679 6.47518 7.79687 7.27567 7.00806C5.53805 8.40521 4.21916 10.2407 3.46002 12.3182C2.56535 14.84 2.57439 17.587 3.48565 20.103C4.81433 21.4181 6.43961 22.4064 8.22947 22.9875C10.0193 23.5687 11.9233 23.7263 13.7867 23.4477C15.6501 23.169 17.4205 22.4619 18.9539 21.3838C20.4874 20.3057 21.7407 18.887 22.6121 17.2429C20.6847 18.675 18.3579 19.4928 15.9443 19.5865C13.7051 19.6555 11.4887 19.1257 9.5314 18.0535H9.53221Z" fill="url(#paint1_radial_501_3782)"/>
<path d="M12.9942 0.0449829C14.6671 0.980428 16.0793 2.30771 17.1056 3.90897C18.4303 5.99861 19.0786 8.43475 18.9646 10.8949C19.1249 12.072 18.9675 13.2699 18.5083 14.3683C18.0491 15.4667 17.3042 16.4268 16.3485 17.1524C15.3927 17.878 14.2597 18.3435 13.0632 18.5021C11.8667 18.6606 10.6489 18.5067 9.532 18.0558C11.4893 19.1281 13.7057 19.6579 15.9449 19.5888C18.3585 19.4952 20.6853 18.6774 22.6127 17.2452C23.5261 15.5228 23.9925 13.6051 23.9706 11.6625C23.9487 9.72001 23.4391 7.81292 22.4871 6.11091C21.5351 4.4089 20.1702 2.96472 18.5139 1.90685C16.8576 0.848984 14.9612 0.210219 12.9934 0.0473654L12.9942 0.0449829Z" fill="url(#paint2_radial_501_3782)"/>
<defs>
<radialGradient id="paint0_radial_501_3782" cx="0" cy="0" r="1" gradientUnits="userSpaceOnUse" gradientTransform="translate(0.00132751 14.5719) scale(22.2568 23.5798)">
<stop stop-color="#FFDD55"/>
<stop offset="0.1" stop-color="#FFDD55"/>
<stop offset="0.5" stop-color="#FF543E"/>
<stop offset="0.833" stop-color="#FF543E"/>
<stop offset="1" stop-color="#0B1222" stop-opacity="0.251"/>
</radialGradient>
<radialGradient id="paint1_radial_501_3782" cx="0" cy="0" r="1" gradientUnits="userSpaceOnUse" gradientTransform="translate(4.18271 11.0851) scale(28.5557 23.8824)">
<stop stop-color="#0B1222"/>
<stop offset="0.26" stop-color="#3771C8"/>
<stop offset="1" stop-color="#4ABDFF"/>
</radialGradient>
<radialGradient id="paint2_radial_501_3782" cx="0" cy="0" r="1" gradientUnits="userSpaceOnUse" gradientTransform="translate(18.0657 -0.73701) scale(15.9555 21.6026)">
<stop stop-color="#14BAEF"/>
<stop offset="0.361" stop-color="#4977F1"/>
<stop offset="0.868" stop-color="#2155DD"/>
<stop offset="1" stop-color="#123283"/>
</radialGradient>
</defs>
</svg>
