<svg width="88" height="88" viewBox="0 0 88 88" fill="none" xmlns="http://www.w3.org/2000/svg">
<path d="M49.3893 1.33907C59.7777 2.65142 69.3302 7.70923 76.2548 15.5636C83.1793 23.4179 87 33.5291 87 44" stroke="black" stroke-opacity="0.2" stroke-width="2" stroke-linecap="round" stroke-linejoin="round"/>
<path d="M49.3893 1.33907C59.7777 2.65142 69.3302 7.70923 76.2548 15.5636C83.1793 23.4179 87 33.5291 87 44" stroke="#0C54C5" stroke-width="2" stroke-linecap="round" stroke-linejoin="round"/>
<path d="M86.6609 49.3893C85.3486 59.7777 80.2908 69.3302 72.4364 76.2548C64.5821 83.1793 54.4709 87 44 87" stroke="black" stroke-opacity="0.2" stroke-width="2" stroke-linecap="round" stroke-linejoin="round"/>
<path d="M86.6609 49.3893C85.3486 59.7777 80.2908 69.3302 72.4364 76.2548C64.5821 83.1793 54.4709 87 44 87" stroke="#0C54C5" stroke-width="2" stroke-linecap="round" stroke-linejoin="round"/>
<path d="M38.6107 86.6609C28.2223 85.3486 18.6698 80.2908 11.7452 72.4364C4.82068 64.5821 1 54.4709 1 44" stroke="black" stroke-opacity="0.2" stroke-width="2" stroke-linecap="round" stroke-linejoin="round"/>
<path d="M38.6107 86.6609C28.2223 85.3486 18.6698 80.2908 11.7452 72.4364C4.82068 64.5821 1 54.4709 1 44" stroke="#0C54C5" stroke-width="2" stroke-linecap="round" stroke-linejoin="round"/>
<path d="M1.33431 38.6484C2.63829 28.2524 7.69311 18.6902 15.5493 11.7578C23.4055 4.82545 33.5225 1 44 1" stroke="black" stroke-opacity="0.2" stroke-width="2" stroke-linecap="round" stroke-linejoin="round"/>
</svg>
