<svg width="32" height="32" viewBox="0 0 32 32" fill="none" xmlns="http://www.w3.org/2000/svg">
<path d="M4.00015 9.33338V6.66671C4.00015 5.95947 4.2811 5.28119 4.7812 4.78109C5.2813 4.281 5.95958 4.00005 6.66682 4.00005H9.33349" stroke="#0F0E13" stroke-width="2.00255" stroke-linecap="round" stroke-linejoin="round"/>
<path d="M22.6672 4.00005H25.3338C26.0411 4.00005 26.7194 4.281 27.2195 4.78109C27.7196 5.28119 28.0005 5.95947 28.0005 6.66671V9.33338" stroke="#0F0E13" stroke-width="2.00255" stroke-linecap="round" stroke-linejoin="round"/>
<path d="M28.0005 22.6667V25.3334C28.0005 26.0406 27.7196 26.7189 27.2195 27.219C26.7194 27.7191 26.0411 28 25.3338 28H22.6672" stroke="#0F0E13" stroke-width="2.00255" stroke-linecap="round" stroke-linejoin="round"/>
<path d="M9.33349 28H6.66682C5.95958 28 5.2813 27.7191 4.7812 27.219C4.2811 26.7189 4.00015 26.0406 4.00015 25.3334V22.6667" stroke="#0F0E13" stroke-width="2.00255" stroke-linecap="round" stroke-linejoin="round"/>
<g clip-path="url(#clip0_2112_5331)">
<path d="M23.3333 18H15.3333C15.1565 18 14.987 17.9298 14.8619 17.8047C14.7369 17.6797 14.6667 17.5101 14.6667 17.3333V11.6667C14.6675 10.8713 14.9839 10.1087 15.5463 9.54632C16.1087 8.9839 16.8713 8.66755 17.6667 8.66666H21C21.7954 8.66755 22.5579 8.9839 23.1203 9.54632C23.6828 10.1087 23.9991 10.8713 24 11.6667V17.3333C24 17.5101 23.9298 17.6797 23.8047 17.8047C23.6797 17.9298 23.5101 18 23.3333 18ZM22.6667 11.6667C22.6667 11.2246 22.4911 10.8007 22.1785 10.4882C21.866 10.1756 21.442 10 21 10H17.6667C17.4478 10 17.2311 10.0431 17.0289 10.1269C16.8267 10.2106 16.6429 10.3334 16.4882 10.4882C16.3334 10.6429 16.2106 10.8266 16.1269 11.0289C16.0431 11.2311 16 11.4478 16 11.6667V16.6667H22.6667V11.6667ZM20 12V14.6667C20 14.8435 20.0702 15.013 20.1953 15.1381C20.3203 15.2631 20.4899 15.3333 20.6667 15.3333C20.8435 15.3333 21.013 15.2631 21.1381 15.1381C21.2631 15.013 21.3333 14.8435 21.3333 14.6667V12C21.3333 11.8232 21.2631 11.6536 21.1381 11.5286C21.013 11.4036 20.8435 11.3333 20.6667 11.3333C20.4899 11.3333 20.3203 11.4036 20.1953 11.5286C20.0702 11.6536 20 11.8232 20 12ZM17.3333 12V14.6667C17.3333 14.8435 17.4036 15.013 17.5286 15.1381C17.6536 15.2631 17.8232 15.3333 18 15.3333C18.1768 15.3333 18.3464 15.2631 18.4714 15.1381C18.5964 15.013 18.6667 14.8435 18.6667 14.6667V12C18.6667 11.8232 18.5964 11.6536 18.4714 11.5286C18.3464 11.4036 18.1768 11.3333 18 11.3333C17.8232 11.3333 17.6536 11.4036 17.5286 11.5286C17.4036 11.6536 17.3333 11.8232 17.3333 12ZM8.23933 15.1733L8.83933 13.3733C9.34133 11.2993 13.1207 10.2667 13.3333 13V19.3333H23.3333C23.5101 19.3333 23.6797 19.4036 23.8047 19.5286C23.9298 19.6536 24 19.8232 24 20V21C24 21.3265 23.9315 21.6494 23.7989 21.9477C23.6663 22.2461 23.4726 22.5133 23.2302 22.7321C22.9879 22.9509 22.7023 23.1164 22.392 23.2179C22.0816 23.3194 21.7535 23.3546 21.4287 23.3213C20.8881 23.2631 20.3865 23.0125 20.0153 22.6153C19.6907 22.9451 19.2757 23.1714 18.8226 23.2658C18.3696 23.3602 17.8987 23.3184 17.4694 23.1457C17.0401 22.973 16.6714 22.677 16.41 22.2952C16.1485 21.9134 16.0058 21.4627 16 21V20.6667H13.3333V21C13.3333 21.6188 13.0875 22.2123 12.6499 22.6499C12.2123 23.0875 11.6188 23.3333 11 23.3333C10.3812 23.3333 9.78767 23.0875 9.35008 22.6499C8.9125 22.2123 8.66667 21.6188 8.66667 21V20.4873C8.46408 20.3704 8.29583 20.2022 8.17881 19.9996C8.06179 19.797 8.00012 19.5673 8 19.3333V16.6493C7.9998 16.1477 8.08061 15.6492 8.23933 15.1733ZM12 19.3333V16.6667H9.33333V19.3333H12ZM11.6667 12.6667C11.3211 12.6664 10.9842 12.7749 10.7038 12.9769C10.4234 13.1789 10.2138 13.4641 10.1047 13.792L9.59133 15.3333H12V13C12 12.9116 11.9649 12.8268 11.9024 12.7643C11.8399 12.7018 11.7551 12.6667 11.6667 12.6667ZM21.5613 21.9947C21.7008 22.0094 21.8418 21.9947 21.9752 21.9515C22.1085 21.9082 22.2313 21.8374 22.3356 21.7436C22.4398 21.6498 22.5232 21.5351 22.5802 21.407C22.6372 21.2789 22.6667 21.1402 22.6667 21V20.6667H20.6667V20.9047C20.6567 21.1643 20.7423 21.4186 20.9072 21.6194C21.072 21.8203 21.3047 21.9538 21.5613 21.9947ZM17.3333 21C17.3375 21.1461 17.3729 21.2896 17.4372 21.4209C17.5015 21.5522 17.5931 21.6681 17.706 21.761C17.8188 21.8539 17.9503 21.9215 18.0915 21.9593C18.2327 21.9971 18.3803 22.0043 18.5245 21.9802C18.6687 21.9562 18.806 21.9016 18.9273 21.82C19.0486 21.7385 19.151 21.6319 19.2276 21.5074C19.3043 21.3829 19.3534 21.2435 19.3716 21.0985C19.3898 20.9535 19.3768 20.8062 19.3333 20.6667H17.3333V21ZM11 22C11.2652 22 11.5196 21.8946 11.7071 21.7071C11.8946 21.5196 12 21.2652 12 21V20.6667H10V21C10 21.2652 10.1054 21.5196 10.2929 21.7071C10.4804 21.8946 10.7348 22 11 22Z" fill="#0F0E13"/>
</g>
<defs>
<clipPath id="clip0_2112_5331">
<rect width="16" height="16" fill="white" transform="matrix(-1 0 0 1 24 8)"/>
</clipPath>
</defs>
</svg>
