<svg width="32" height="32" viewBox="0 0 32 32" fill="none" xmlns="http://www.w3.org/2000/svg">
<path d="M4.00015 9.33338V6.66671C4.00015 5.95947 4.2811 5.28119 4.7812 4.78109C5.2813 4.281 5.95958 4.00005 6.66682 4.00005H9.33349" stroke="#0F0E13" stroke-width="2.00255" stroke-linecap="round" stroke-linejoin="round"/>
<path d="M22.6672 4.00005H25.3338C26.0411 4.00005 26.7194 4.281 27.2195 4.78109C27.7196 5.28119 28.0005 5.95947 28.0005 6.66671V9.33338" stroke="#0F0E13" stroke-width="2.00255" stroke-linecap="round" stroke-linejoin="round"/>
<path d="M28.0005 22.6667V25.3334C28.0005 26.0406 27.7196 26.7189 27.2195 27.219C26.7194 27.7191 26.0411 28 25.3338 28H22.6672" stroke="#0F0E13" stroke-width="2.00255" stroke-linecap="round" stroke-linejoin="round"/>
<path d="M9.33349 28H6.66682C5.95958 28 5.2813 27.7191 4.7812 27.219C4.2811 26.7189 4.00015 26.0406 4.00015 25.3334V22.6667" stroke="#0F0E13" stroke-width="2.00255" stroke-linecap="round" stroke-linejoin="round"/>
<g clip-path="url(#clip0_2112_5331)">
<path d="M16.0004 8C13.8793 8.00229 11.8458 8.84589 10.346 10.3457C8.84625 11.8455 8.00266 13.879 8.00037 16C8.40037 26.6 23.6004 26.5953 24.0004 16C23.9981 13.879 23.1545 11.8455 21.6547 10.3457C20.1549 8.84589 18.1214 8.00229 16.0004 8ZM16.0004 22.6667C14.2329 22.6647 12.5383 21.9617 11.2885 20.7119C10.0386 19.4621 9.33564 17.7675 9.3337 16C9.66703 7.168 22.3337 7.17 22.667 16C22.6651 17.7675 21.9621 19.4621 20.7123 20.7119C19.4624 21.9617 17.7679 22.6647 16.0004 22.6667ZM16.0004 10.6667C14.5864 10.6683 13.2307 11.2307 12.2309 12.2305C11.231 13.2304 10.6686 14.586 10.667 16C10.9177 23.0587 21.0844 23.0567 21.3337 16C21.3321 14.586 20.7697 13.2304 19.7698 12.2305C18.77 11.2307 17.4144 10.6683 16.0004 10.6667ZM15.4444 16.724C15.4303 16.5406 15.3981 16.3591 15.3484 16.182C15.2983 16.0062 15.2313 15.8356 15.1484 15.6727C15.4702 15.5462 15.7609 15.3515 16.0004 15.102C16.2393 15.3512 16.5292 15.5459 16.8504 15.6727C16.7674 15.8356 16.7004 16.0062 16.6504 16.182C16.6006 16.3591 16.5685 16.5406 16.5544 16.724C16.1882 16.6483 15.8105 16.6483 15.4444 16.724ZM19.4137 13.916L18.127 14.4307C17.9655 14.4948 17.7907 14.5184 17.6179 14.4995C17.4451 14.4807 17.2795 14.4198 17.1356 14.3224C16.9917 14.2249 16.8738 14.0938 16.7921 13.9403C16.7104 13.7869 16.6675 13.6158 16.667 13.442V12.056C17.231 12.1522 17.7679 12.3679 18.2417 12.6887C18.7154 13.0095 19.115 13.428 19.4137 13.916ZM15.3337 12.056V13.442C15.3332 13.6158 15.2903 13.7869 15.2086 13.9403C15.127 14.0938 15.009 14.2249 14.8651 14.3224C14.7212 14.4198 14.5556 14.4807 14.3828 14.4995C14.2101 14.5184 14.0353 14.4948 13.8737 14.4307L12.587 13.916C12.8857 13.428 13.2853 13.0095 13.7591 12.6887C14.2328 12.3679 14.7697 12.1522 15.3337 12.056ZM12.0004 16C12.0004 15.7156 12.0305 15.432 12.0904 15.154L13.2237 15.608C13.426 15.6887 13.607 15.815 13.7527 15.9769C13.8984 16.1389 14.0048 16.3322 14.0637 16.5419C14.1227 16.7516 14.1325 16.9721 14.0925 17.1862C14.0525 17.4003 13.9637 17.6024 13.833 17.7767L13.0997 18.752C12.3934 18.0099 11.9998 17.0245 12.0004 16ZM14.165 19.5533L14.9337 18.5333C15.0622 18.3742 15.2248 18.2459 15.4093 18.1578C15.5939 18.0696 15.7958 18.0238 16.0004 18.0238C16.2049 18.0238 16.4069 18.0696 16.5914 18.1578C16.776 18.2459 16.9385 18.3742 17.067 18.5333L17.833 19.554C17.2652 19.8442 16.6366 19.9955 15.999 19.9954C15.3613 19.9953 14.7327 19.8438 14.165 19.5533ZM18.8984 18.7533L18.461 18.1713L18.1664 17.778C18.0354 17.6037 17.9464 17.4015 17.9063 17.1873C17.8661 16.973 17.8759 16.7523 17.9348 16.5424C17.9938 16.3325 18.1003 16.1391 18.2461 15.977C18.3919 15.8149 18.5732 15.6887 18.7757 15.608L19.909 15.154C20.045 15.7909 20.0242 16.4513 19.8482 17.0783C19.6723 17.7053 19.3458 18.2802 18.8984 18.7533Z" fill="black"/>
</g>
<defs>
<clipPath id="clip0_2112_5331">
<rect width="16" height="16" fill="white" transform="translate(8 8)"/>
</clipPath>
</defs>
</svg>
